<?xml version="1.0" encoding="utf-8"?>
<!-- Generator: Adobe Illustrator 27.1.0, SVG Export Plug-In . SVG Version: 6.00 Build 0)  -->
<svg version="1.1" id="레이어_1" xmlns="http://www.w3.org/2000/svg" xmlns:xlink="http://www.w3.org/1999/xlink" x="0px"
	 y="0px" viewBox="0 0 300 300" style="enable-background:new 0 0 300 300;" xml:space="preserve">
<style type="text/css">
	.st0{fill:#373838;}
</style>
<path class="st0" d="M275.17,256.83l-57.87-57.87c15.24-18.88,24.39-42.88,24.39-68.99c0-60.66-49.35-110.01-110.01-110.01
	S21.68,69.32,21.68,129.97s49.35,110.01,110.01,110.01c24.28,0,46.75-7.92,64.97-21.29l58.33,58.33c5.57,5.57,14.61,5.57,20.19,0
	S280.75,262.41,275.17,256.83z M48.68,129.97c0-45.77,37.23-83,83-83s83,37.23,83,83s-37.23,83-83,83S48.68,175.74,48.68,129.97z"/>
</svg>
