<?xml version="1.0" encoding="utf-8"?>
<!-- Generator: Adobe Illustrator 27.1.0, SVG Export Plug-In . SVG Version: 6.00 Build 0)  -->
<svg version="1.1" id="레이어_1" xmlns="http://www.w3.org/2000/svg" xmlns:xlink="http://www.w3.org/1999/xlink" x="0px"
	 y="0px" viewBox="0 0 300 300" style="enable-background:new 0 0 300 300;" xml:space="preserve">
<style type="text/css">
	.st0{fill:#373838;}
</style>
<g>
	<path class="st0" d="M249.62,119.82c0-54.93-44.69-99.63-99.62-99.63s-99.62,44.69-99.62,99.63c0,22.55,7.79,44.67,21.94,62.29
		l0.34,0.42l-0.04,0.83v87.89c0,2.89,1.44,5.56,3.85,7.15c2.38,1.56,5.47,1.84,8.09,0.71l65.45-28.2l0.57,0.25l64.88,27.95
		c1.08,0.47,2.21,0.7,3.37,0.7c0.01,0,0.01,0,0.02,0c1.67,0,3.3-0.49,4.7-1.41c2.41-1.59,3.85-4.26,3.85-7.15l-0.04-88.45l0.34-0.7
		C241.83,164.49,249.62,142.37,249.62,119.82z M210.28,258.25l-56.89-24.51c-2.15-0.92-4.61-0.92-6.77,0l-56.89,24.51v-59.14
		l2.26,1.63c16.98,12.24,37.04,18.71,58.02,18.71c20.98,0,41.04-6.47,58.02-18.71l2.26-1.63V258.25z M150,202.33
		c-45.5,0-82.51-37.02-82.51-82.51c0-45.5,37.02-82.52,82.51-82.52s82.51,37.02,82.51,82.52C232.51,165.32,195.5,202.33,150,202.33z
		"/>
	<path class="st0" d="M150,78.15c-22.98,0-41.67,18.69-41.67,41.67s18.69,41.67,41.67,41.67s41.67-18.69,41.67-41.67
		S172.98,78.15,150,78.15z M150,144.38c-13.54,0-24.56-11.02-24.56-24.56S136.46,95.26,150,95.26s24.56,11.02,24.56,24.56
		S163.54,144.38,150,144.38z"/>
</g>
</svg>
