<?xml version="1.0" standalone="no"?>
<!DOCTYPE svg PUBLIC "-//W3C//DTD SVG 20010904//EN"
 "http://www.w3.org/TR/2001/REC-SVG-20010904/DTD/svg10.dtd">
<svg version="1.0" xmlns="http://www.w3.org/2000/svg"
 width="113.000000pt" height="489.000000pt" viewBox="0 0 113.000000 489.000000"
 preserveAspectRatio="xMidYMid meet">

<g transform="translate(0.000000,489.000000) scale(0.100000,-0.100000)"
fill="#000000" stroke="none">
<path d="M390 4857 c-179 -61 -313 -201 -365 -380 -20 -70 -23 -212 -5 -287
57 -245 292 -430 545 -430 253 0 488 185 545 430 18 75 15 217 -5 287 -53 183
-202 334 -384 387 -84 25 -249 21 -331 -7z"/>
<path d="M460 2999 c-82 -14 -206 -77 -275 -141 -118 -109 -177 -247 -177
-413 0 -225 116 -410 317 -506 308 -148 672 12 776 341 29 90 29 240 0 330
-87 274 -353 436 -641 389z"/>
<path d="M433 1116 c-147 -36 -292 -149 -361 -284 -50 -97 -65 -163 -64 -274
1 -154 53 -279 162 -388 113 -113 229 -160 395 -160 166 0 282 47 395 160 109
109 162 237 162 395 1 105 -15 172 -64 267 -114 221 -382 343 -625 284z"/>
</g>
</svg>
