<?xml version="1.0" encoding="utf-8"?>
<!-- Generator: Adobe Illustrator 27.1.0, SVG Export Plug-In . SVG Version: 6.00 Build 0)  -->
<svg version="1.1" id="레이어_1" xmlns="http://www.w3.org/2000/svg" xmlns:xlink="http://www.w3.org/1999/xlink" x="0px"
	 y="0px" viewBox="0 0 300 300" style="enable-background:new 0 0 300 300;" xml:space="preserve">
<style type="text/css">
	.st0{fill:#373838;}
</style>
<path class="st0" d="M240.44,225.06h-3.73v-93.41c0-19.15-6.57-38.1-18.49-53.34c-11.22-14.35-26.96-25-44.3-30l-0.06-0.02v-5.97
	c0-13.15-10.7-23.86-23.86-23.86c-13.15,0-23.86,10.7-23.86,23.86v5.97l-0.06,0.02c-17.35,5-33.08,15.65-44.31,30
	c-11.92,15.24-18.49,34.19-18.49,53.34v93.41h-3.73c-14.26,0-23.11,7.25-23.11,18.91v10.56h86.39l0,0.07
	c0.37,14.6,12.55,26.47,27.16,26.47s26.79-11.87,27.16-26.47l0-0.08h86.39v-10.56C263.55,232.31,254.69,225.06,240.44,225.06z
	 M208.86,131.65v93.41H91.14v-93.41c0-32.45,26.4-58.85,58.86-58.85S208.86,99.2,208.86,131.65z"/>
<circle class="st0" cx="250.58" cy="46.76" r="28.29"/>
</svg>
