<?xml version="1.0" encoding="utf-8"?>
<!-- Generator: Adobe Illustrator 27.1.0, SVG Export Plug-In . SVG Version: 6.00 Build 0)  -->
<svg version="1.1" id="레이어_1" xmlns="http://www.w3.org/2000/svg" xmlns:xlink="http://www.w3.org/1999/xlink" x="0px"
	 y="0px" viewBox="0 0 300 300" style="enable-background:new 0 0 300 300;" xml:space="preserve">
<style type="text/css">
	.st0{fill:#373838;}
</style>
<path class="st0" d="M261.74,69.99h-0.1C260.53,38.98,204.98,22.73,150,22.73S39.47,38.98,38.36,69.99h-0.1
	c0,0.16,0.05,0.3,0.05,0.46c0,0.16-0.05,0.3-0.05,0.46v158.17c0,31.63,56.21,48.19,111.74,48.19s111.74-16.55,111.74-48.19V70.91
	c0-0.16-0.05-0.3-0.05-0.46C261.69,70.29,261.74,70.15,261.74,69.99z M150,41.18c56.25,0,92.32,17.17,93.21,29.27
	c-0.88,12.1-36.96,29.27-93.21,29.27S57.68,82.55,56.79,70.45C57.68,58.35,93.75,41.18,150,41.18z M150,258.82
	c-56.95,0-93.29-17.61-93.29-29.73v-24.09c21.07,13.53,57.27,20.53,93.29,20.53s72.22-7,93.29-20.53v24.09
	C243.29,241.21,206.95,258.82,150,258.82z M150,207.07c-56.95,0-93.29-17.61-93.29-29.73v-24.88
	c21.07,13.53,57.27,20.53,93.29,20.53s72.22-7,93.29-20.53v24.88C243.29,189.46,206.95,207.07,150,207.07z M150,154.54
	c-56.95,0-93.29-17.61-93.29-29.73V97.65c21.07,13.53,57.27,20.53,93.29,20.53s72.22-7,93.29-20.53v27.16
	C243.29,136.92,206.95,154.54,150,154.54z"/>
</svg>
