<?xml version="1.0" encoding="utf-8"?>
<!-- Generator: Adobe Illustrator 27.1.0, SVG Export Plug-In . SVG Version: 6.00 Build 0)  -->
<svg version="1.1" id="레이어_1" xmlns="http://www.w3.org/2000/svg" xmlns:xlink="http://www.w3.org/1999/xlink" x="0px"
	 y="0px" viewBox="0 0 300 300" style="enable-background:new 0 0 300 300;" xml:space="preserve">
<style type="text/css">
	.st0{fill:#373838;}
</style>
<path class="st0" d="M271.6,140.7L37.7,41.5c-1.5-0.7-3.1-1.1-4.7-1.1c-2.8,0-5.5,1.1-7.5,3.2c-3.1,3.2-3.9,8.1-1.9,12.1l47.5,94.9
	l-0.4,0.8l-47.1,93.1c-2,4-1.3,8.9,1.8,12.1c3.1,3.1,8.1,4,12.1,2.2l234.1-98.9c3.6-1.7,5.9-5.4,5.9-9.5
	C277.5,146.2,275.2,142.4,271.6,140.7z M56.4,74.1l165.9,65.5H89.2L56.4,74.1z M56.6,225.9l33.1-65.5h133.2L56.6,225.9z"/>
</svg>
