<?xml version="1.0" encoding="utf-8"?>
<!-- Generator: Adobe Illustrator 27.1.0, SVG Export Plug-In . SVG Version: 6.00 Build 0)  -->
<svg version="1.1" id="레이어_1" xmlns="http://www.w3.org/2000/svg" xmlns:xlink="http://www.w3.org/1999/xlink" x="0px"
	 y="0px" viewBox="0 0 300 300" style="enable-background:new 0 0 300 300;" xml:space="preserve">
<style type="text/css">
	.st0{fill:#373838;}
</style>
<path class="st0" d="M235.79,183.24c-12.07-14.1-28.34-23.95-46.24-28.07c20.02-13.26,32.25-35.75,32.25-59.88
	c0-39.59-32.21-71.81-71.81-71.81S78.19,55.7,78.19,95.29c0,24.13,12.23,46.63,32.25,59.88c-17.9,4.12-34.17,13.96-46.24,28.07
	c-13.35,15.6-20.71,35.49-20.71,56v37.27h24v-37.27c0-34.34,27.94-62.28,62.28-62.28h40.44c34.34,0,62.28,27.94,62.28,62.28v37.27
	h24v-37.27C256.5,218.73,249.15,198.85,235.79,183.24z M150,47.48c26.36,0,47.81,21.45,47.81,47.81c0,26.36-21.45,47.81-47.81,47.81
	c-26.36,0-47.81-21.45-47.81-47.81C102.19,68.93,123.64,47.48,150,47.48z"/>
</svg>
