<?xml version="1.0" encoding="utf-8"?>
<!-- Generator: Adobe Illustrator 27.1.0, SVG Export Plug-In . SVG Version: 6.00 Build 0)  -->
<svg version="1.1" id="레이어_1" xmlns="http://www.w3.org/2000/svg" xmlns:xlink="http://www.w3.org/1999/xlink" x="0px"
	 y="0px" viewBox="0 0 300 300" style="enable-background:new 0 0 300 300;" xml:space="preserve">
<style type="text/css">
	.st0{fill:#373838;}
</style>
<g>
	<path class="st0" d="M216.49,76.2l-11.82-8.75l-17.5,23.65L199,99.84c30.94,22.89,41.82,63.57,26.48,98.94
		c-18.08,41.65-66.67,60.84-108.32,42.76c-41.65-18.07-60.84-66.66-42.76-108.32c5.89-13.59,15.32-25.32,27.25-33.94l11.93-8.61
		L96.36,66.83l-11.92,8.61c-16.22,11.71-29.02,27.64-37.02,46.08C22.89,178.05,48.92,244,105.45,268.53
		c14.45,6.27,29.5,9.23,44.33,9.23c43.2,0,84.42-25.19,102.68-67.27C273.29,162.5,258.5,107.27,216.49,76.2z"/>
	<path class="st0" d="M149.94,140.13c8.12,0,14.71-6.59,14.71-14.71V36.94c0-8.12-6.59-14.71-14.71-14.71s-14.71,6.59-14.71,14.71
		v88.47C135.23,133.54,141.82,140.13,149.94,140.13z"/>
</g>
</svg>
