<?xml version="1.0" encoding="utf-8"?>
<!-- Generator: Adobe Illustrator 27.1.0, SVG Export Plug-In . SVG Version: 6.00 Build 0)  -->
<svg version="1.1" id="레이어_1" xmlns="http://www.w3.org/2000/svg" xmlns:xlink="http://www.w3.org/1999/xlink" x="0px"
	 y="0px" viewBox="0 0 300 300" style="enable-background:new 0 0 300 300;" xml:space="preserve">
<style type="text/css">
	.st0{fill:#279DD9;}
</style>
<path class="st0" d="M249,44.94H51c-16.92,0-30.68,13.76-30.68,30.68v116.34c0,16.92,13.76,30.68,30.68,30.68h57.97
	c1.92,2.11,3.8,4.18,5.63,6.19c8.17,8.96,14.58,15.97,19.06,20.82c2.45,2.65,4.43,4.79,5.81,6.25c2.88,3.05,5.36,5.68,10.19,5.68
	c4.83,0,7.32-2.64,10.2-5.69c1.39-1.48,3.38-3.62,5.84-6.28c4.49-4.87,10.93-11.91,19.14-20.91c1.75-1.92,3.6-3.95,5.52-6.05H249
	c16.92,0,30.68-13.76,30.68-30.68V75.62C279.68,58.7,265.92,44.94,249,44.94z"/>
</svg>
