<?xml version="1.0" encoding="utf-8"?>
<!-- Generator: Adobe Illustrator 27.1.0, SVG Export Plug-In . SVG Version: 6.00 Build 0)  -->
<svg version="1.1" id="레이어_1" xmlns="http://www.w3.org/2000/svg" xmlns:xlink="http://www.w3.org/1999/xlink" x="0px"
	 y="0px" viewBox="0 0 300 300" style="enable-background:new 0 0 300 300;" xml:space="preserve">
<style type="text/css">
	.st0{fill:#373838;}
</style>
<path class="st0" d="M279.14,119.18c-0.67-2.52-2.28-4.62-4.51-5.95L154.95,36.22c-3.05-1.77-6.84-1.77-10.05,0.1L25.46,113.18
	c-2.29,1.32-3.92,3.45-4.61,6c-0.68,2.55-0.33,5.22,0.99,7.5c1.32,2.29,3.45,3.93,6,4.61c2.55,0.69,5.22,0.33,7.51-0.99l9.85-5.69
	v130.59c0,5.45,4.44,9.89,9.89,9.89h189.82c5.45,0,9.89-4.44,9.89-9.89V124.62l9.85,5.69c1.5,0.87,3.21,1.33,4.94,1.33
	c3.53,0,6.81-1.9,8.57-4.94C279.47,124.4,279.83,121.73,279.14,119.18z"/>
</svg>
