<?xml version="1.0" encoding="utf-8"?>
<!-- Generator: Adobe Illustrator 27.1.0, SVG Export Plug-In . SVG Version: 6.00 Build 0)  -->
<svg version="1.1" id="레이어_1" xmlns="http://www.w3.org/2000/svg" xmlns:xlink="http://www.w3.org/1999/xlink" x="0px"
	 y="0px" viewBox="0 0 300 300" style="enable-background:new 0 0 300 300;" xml:space="preserve">
<style type="text/css">
	.st0{fill:#373838;}
</style>
<path class="st0" d="M56.71,152.46v24.88c0,12.12,36.34,29.73,93.29,29.73s93.29-17.61,93.29-29.73v-24.88
	c-21.07,13.53-57.27,20.53-93.29,20.53S77.78,165.98,56.71,152.46z"/>
<path class="st0" d="M56.71,204.99v24.09c0,12.12,36.34,29.73,93.29,29.73s93.29-17.61,93.29-29.73v-24.09
	c-21.07,13.53-57.27,20.53-93.29,20.53S77.78,218.52,56.71,204.99z"/>
<path class="st0" d="M150,99.72c56.25,0,92.32-17.17,93.21-29.27c-0.88-12.1-36.96-29.27-93.21-29.27S57.68,58.35,56.79,70.45
	C57.68,82.55,93.75,99.72,150,99.72z"/>
<path class="st0" d="M56.71,97.65v27.16c0,12.12,36.34,29.73,93.29,29.73s93.29-17.61,93.29-29.73V97.65
	c-21.07,13.53-57.27,20.53-93.29,20.53S77.78,111.17,56.71,97.65z"/>
</svg>
