<?xml version="1.0" encoding="utf-8"?>
<!-- Generator: Adobe Illustrator 27.1.0, SVG Export Plug-In . SVG Version: 6.00 Build 0)  -->
<svg version="1.1" id="레이어_1" xmlns="http://www.w3.org/2000/svg" xmlns:xlink="http://www.w3.org/1999/xlink" x="0px"
	 y="0px" viewBox="0 0 300 300" style="enable-background:new 0 0 300 300;" xml:space="preserve">
<style type="text/css">
	.st0{fill:#373838;}
</style>
<g>
	<path class="st0" d="M67.98,209.01c0.48,0,0.96-0.04,1.44-0.1l57.08-8.25c2.15-0.31,4.14-1.31,5.67-2.84L239.13,90.85
		c3.93-3.93,3.93-10.3,0-14.22L190.3,27.8c-3.93-3.93-10.29-3.93-14.22,0L69.12,134.75c-1.54,1.53-2.53,3.52-2.84,5.67l-8.25,57.09
		c-0.45,3.14,0.6,6.31,2.84,8.55C62.77,207.96,65.34,209.01,67.98,209.01z"/>
	<path class="st0" d="M270.07,256.13H29.93c-5.25,0-9.51,4.26-9.51,9.51v0c0,5.25,4.26,9.51,9.51,9.51h240.13
		c5.25,0,9.51-4.26,9.51-9.51v0C279.57,260.39,275.32,256.13,270.07,256.13z"/>
</g>
</svg>
