<?xml version="1.0" encoding="utf-8"?>
<!-- Generator: Adobe Illustrator 27.1.0, SVG Export Plug-In . SVG Version: 6.00 Build 0)  -->
<svg version="1.1" id="레이어_1" xmlns="http://www.w3.org/2000/svg" xmlns:xlink="http://www.w3.org/1999/xlink" x="0px"
	 y="0px" viewBox="0 0 300 300" style="enable-background:new 0 0 300 300;" xml:space="preserve">
<style type="text/css">
	.st0{fill:#212121;}
</style>
<path class="st0" d="M149.61,266.29c-5.44,0-8.24-2.97-11.48-6.4c-1.56-1.65-3.79-4.06-6.55-7.05
	c-5.04-5.47-12.27-13.36-21.47-23.46c-17.16-18.83-38.49-42.34-53.36-58.75c-13.47-14.86-23.12-25.54-23.12-25.54
	c-0.19-0.21-0.38-0.43-0.55-0.66c-10.94-13.94-15.21-31.76-12.03-50.17c3.55-20.52,16.2-39.41,33.84-50.55
	c31.27-19.72,72.02-8.74,94.73,19.32c22.72-28.07,63.47-39.04,94.73-19.33c0,0,0,0,0.01,0c18.29,11.55,31.26,30.49,34.7,50.67
	c3.05,17.95-1.54,35.74-12.94,50.1c-0.17,0.21-0.34,0.41-0.52,0.61l-22.86,25.26c-21.85,24.11-39.84,43.91-53.48,58.88
	c-9.25,10.15-16.51,18.08-21.57,23.57c-2.77,3.01-5.01,5.42-6.58,7.08C157.86,263.32,155.06,266.29,149.61,266.29z M52.28,128.86
	c1.75,1.94,10.74,11.87,22.79,25.17c43.99,48.55,64.79,71.31,74.55,81.9c9.78-10.61,30.63-33.44,74.8-82.17l22.57-24.93
	c8.71-11.17,9-22.62,7.7-30.29c-2.27-13.37-11.07-26.05-23.52-33.91c-22.17-13.98-51.59-3.63-65.58,18.53l-5.5,8.74
	c-2.26,3.59-6.21,5.77-10.46,5.77c0,0-0.01,0-0.01,0c-4.25,0-8.2-2.19-10.46-5.79l-5.49-8.75c-13.98-22.13-43.4-32.48-65.57-18.5
	c-11.82,7.46-20.3,20.12-22.67,33.85C43.46,109.76,45.9,120.53,52.28,128.86z"/>
</svg>
