<?xml version="1.0" encoding="utf-8"?>
<!-- Generator: Adobe Illustrator 27.1.0, SVG Export Plug-In . SVG Version: 6.00 Build 0)  -->
<svg version="1.1" id="레이어_1" xmlns="http://www.w3.org/2000/svg" xmlns:xlink="http://www.w3.org/1999/xlink" x="0px"
	 y="0px" viewBox="0 0 300 300" style="enable-background:new 0 0 300 300;" xml:space="preserve">
<style type="text/css">
	.st0{fill:#373838;}
</style>
<g>
	<path class="st0" d="M67.98,209.01c-2.65,0-5.21-1.05-7.11-2.95c-2.24-2.24-3.3-5.41-2.84-8.55l8.25-57.09
		c0.31-2.15,1.31-4.14,2.84-5.67L176.08,27.8c3.93-3.93,10.29-3.93,14.22,0l48.83,48.83c3.93,3.92,3.93,10.29,0,14.22L132.18,197.81
		c-1.53,1.54-3.52,2.53-5.67,2.84l-57.08,8.25C68.94,208.97,68.46,209.01,67.98,209.01z M85.71,146.61l-5.85,40.46l40.46-5.85
		l97.48-97.48l-34.61-34.61L85.71,146.61z"/>
	<path class="st0" d="M270.07,275.15H29.93c-5.25,0-9.51-4.26-9.51-9.51v0c0-5.25,4.26-9.51,9.51-9.51h240.13
		c5.25,0,9.51,4.26,9.51,9.51v0C279.57,270.89,275.32,275.15,270.07,275.15z"/>
</g>
</svg>
