<?xml version="1.0" encoding="utf-8"?>
<!-- Generator: Adobe Illustrator 27.1.0, SVG Export Plug-In . SVG Version: 6.00 Build 0)  -->
<svg version="1.1" id="레이어_1" xmlns="http://www.w3.org/2000/svg" xmlns:xlink="http://www.w3.org/1999/xlink" x="0px"
	 y="0px" viewBox="0 0 300 300" style="enable-background:new 0 0 300 300;" xml:space="preserve">
<style type="text/css">
	.st0{fill:#E84949;}
</style>
<path class="st0" d="M279.06,94.39c-3.43-20.18-16.4-39.12-34.7-50.67c0,0,0,0-0.01,0c-31.26-19.72-72.01-8.74-94.73,19.33
	C126.92,34.98,86.16,24,54.89,43.72C37.25,54.85,24.6,73.75,21.05,94.26c-3.18,18.41,1.09,36.23,12.03,50.17
	c0.18,0.23,0.36,0.45,0.55,0.66c0,0,9.65,10.68,23.12,25.54c14.87,16.41,36.2,39.92,53.36,58.75c9.21,10.1,16.43,17.99,21.47,23.46
	c2.76,2.99,4.99,5.39,6.55,7.05c3.24,3.44,6.04,6.4,11.48,6.4c5.44,0,8.25-2.97,11.5-6.42c1.57-1.66,3.81-4.08,6.58-7.08
	c5.06-5.49,12.32-13.42,21.57-23.57c13.64-14.96,31.63-34.77,53.48-58.88l22.86-25.26c0.18-0.2,0.35-0.4,0.52-0.61
	C277.51,130.13,282.11,112.34,279.06,94.39z"/>
</svg>
