<?xml version="1.0" encoding="utf-8"?>
<!-- Generator: Adobe Illustrator 27.1.0, SVG Export Plug-In . SVG Version: 6.00 Build 0)  -->
<svg version="1.1" id="레이어_1" xmlns="http://www.w3.org/2000/svg" xmlns:xlink="http://www.w3.org/1999/xlink" x="0px"
	 y="0px" viewBox="0 0 300 300" style="enable-background:new 0 0 300 300;" xml:space="preserve">
<style type="text/css">
	.st0{fill:#373838;}
</style>
<path class="st0" d="M254.86,68.65c-16.07-18.23-36.84-28.27-58.49-28.27h-94.34c-21.65,0-42.42,10.04-58.49,28.27
	c-15.31,17.37-24.09,39.92-24.09,61.87v0.45c0,21.81,8.78,44.22,24.09,61.48c16.07,18.12,36.84,28.1,58.48,28.1h15.7
	c0.83,7.24,0.09,12.36-4.8,16.32c-2.91,2.35-4.07,6.18-2.96,9.76c1.11,3.57,4.23,6.07,7.96,6.37c0.19,0.02,1.94,0.15,4.76,0.15
	c11.13,0,47.56-2.39,57.58-32.59h16.09c21.64,0,42.41-9.98,58.48-28.1c15.31-17.26,24.09-39.67,24.09-61.48v-0.45
	C278.95,108.57,270.17,86.02,254.86,68.65z M135.26,132.83c0-7.7,6.24-13.94,13.94-13.94c7.7,0,13.94,6.24,13.94,13.94
	s-6.24,13.94-13.94,13.94C141.5,146.76,135.26,140.52,135.26,132.83z M114.91,132.83c0,7.7-6.24,13.94-13.94,13.94
	s-13.94-6.24-13.94-13.94s6.24-13.94,13.94-13.94S114.91,125.13,114.91,132.83z M197.43,118.89c7.7,0,13.94,6.24,13.94,13.94
	s-6.24,13.94-13.94,13.94s-13.94-6.24-13.94-13.94S189.73,118.89,197.43,118.89z"/>
</svg>
