<?xml version="1.0" encoding="utf-8"?>
<!-- Generator: Adobe Illustrator 27.1.0, SVG Export Plug-In . SVG Version: 6.00 Build 0)  -->
<svg version="1.1" id="레이어_1" xmlns="http://www.w3.org/2000/svg" xmlns:xlink="http://www.w3.org/1999/xlink" x="0px"
	 y="0px" viewBox="0 0 300 300" style="enable-background:new 0 0 300 300;" xml:space="preserve">
<style type="text/css">
	.st0{fill:#212121;}
</style>
<path class="st0" d="M248.22,37.89H51.78c-17.51,0-31.75,14.24-31.75,31.75v120.41c0,17.51,14.24,31.75,31.75,31.75h55.75
	c1.99,2.18,3.94,4.32,5.83,6.4c8.46,9.28,15.09,16.53,19.72,21.55c2.53,2.75,4.58,4.95,6.01,6.47c2.98,3.16,5.55,5.88,10.55,5.88
	c5,0,7.58-2.73,10.56-5.89c1.44-1.53,3.5-3.74,6.04-6.5c4.65-5.04,11.31-12.33,19.81-21.65c1.82-1.99,3.73-4.09,5.71-6.27h56.45
	c17.51,0,31.75-14.24,31.75-31.75V69.64C279.98,52.13,265.73,37.89,248.22,37.89z M258.79,79.58v67.78v42.69
	c0,5.83-4.74,10.57-10.57,10.57h-37.19h-30.68c-7.96,8.75-14.29,15.69-19.31,21.19c-4.95,5.42-8.65,9.45-11.39,12.42
	c-2.74-2.97-6.43-7-11.38-12.42c-5.02-5.5-11.35-12.44-19.31-21.19H88.27h-36.5c-5.83,0-10.57-4.74-10.57-10.57V148.3V79.26v-9.61
	c0-5.83,4.74-10.57,10.57-10.57h8.75h70.51h37.23h70.52h9.43c5.83,0,10.57,4.74,10.57,10.57V79.58z"/>
</svg>
