<?xml version="1.0" encoding="utf-8"?>
<!-- Generator: Adobe Illustrator 27.1.0, SVG Export Plug-In . SVG Version: 6.00 Build 0)  -->
<svg version="1.1" id="레이어_1" xmlns="http://www.w3.org/2000/svg" xmlns:xlink="http://www.w3.org/1999/xlink" x="0px"
	 y="0px" viewBox="0 0 300 300" style="enable-background:new 0 0 300 300;" xml:space="preserve">
<style type="text/css">
	.st0{fill:#373838;}
</style>
<g>
	<path class="st0" d="M153.59,90.09l-0.06,0c-1.29-0.07-2.42-0.11-3.53-0.11c-33.1,0-60.03,26.93-60.03,60.03
		c0,31.59,24.7,57.9,56.23,59.9c1.02,0.06,2.37,0.13,3.79,0.13c33.1,0,60.03-26.93,60.03-60.03
		C210.03,118.29,185.24,91.97,153.59,90.09z M150,185.11c-0.76,0-1.54-0.04-2.26-0.08c-18.41-1.17-32.84-16.55-32.84-35.02
		c0-19.36,15.75-35.1,35.1-35.1c0.65,0,1.32,0.02,2.13,0.07c18.49,1.1,32.97,16.49,32.97,35.03
		C185.1,169.36,169.36,185.11,150,185.11z"/>
	<path class="st0" d="M278.82,138.7L278.82,138.7c-0.31-3.68-2.22-7.01-5.23-9.12l-17.05-11.98c-0.41-1.34-0.85-2.68-1.31-4.01
		l6.75-19.74c1.19-3.47,0.78-7.27-1.11-10.42c-3.93-6.53-8.42-12.7-13.37-18.35c-2.5-2.86-5.98-4.4-9.53-4.24l-20.87,0.32
		c-1.11-0.84-2.25-1.67-3.39-2.47l-6.13-19.96c-1.08-3.5-3.63-6.34-7-7.77c-6.92-2.95-14.17-5.31-21.57-7.01
		c-3.58-0.82-7.31-0.02-10.23,2.18L152.11,38.7c-1.39-0.03-2.8-0.03-4.2,0l-16.7-12.55c-2.93-2.2-6.66-3-10.24-2.18
		c-7.39,1.7-14.64,4.06-21.56,7.01c-3.37,1.44-5.92,4.27-6.99,7.77l-6.15,19.98c-1.15,0.8-2.28,1.63-3.37,2.45l-20.84-0.32
		c-3.66-0.07-7.15,1.46-9.58,4.25C47.49,70.82,42.99,77,39.12,83.44c-1.89,3.14-2.29,6.93-1.1,10.4l6.75,19.75
		c-0.45,1.32-0.89,2.67-1.3,4.01l-17.04,11.97c-3.01,2.11-4.92,5.43-5.23,9.1c-0.34,3.98-0.51,7.68-0.51,11.33
		c0,3.65,0.17,7.35,0.51,11.32c0.32,3.66,2.22,6.97,5.23,9.09l17.05,11.99c0.41,1.34,0.84,2.68,1.29,4l-6.75,19.75
		c-1.19,3.47-0.78,7.26,1.1,10.4c3.87,6.45,8.37,12.62,13.35,18.35c2.46,2.82,5.95,4.36,9.55,4.25l20.86-0.33
		c1.1,0.83,2.23,1.66,3.38,2.46l6.15,19.98c1.08,3.5,3.63,6.33,7,7.77c6.9,2.94,14.16,5.29,21.56,7c0.91,0.21,1.85,0.32,2.78,0.32
		c2.71,0,5.28-0.86,7.46-2.49l16.69-12.55c1.4,0.03,2.78,0.03,4.19,0l16.7,12.55c2.89,2.17,6.72,2.99,10.24,2.18
		c7.4-1.7,14.65-4.05,21.56-7c3.37-1.44,5.92-4.27,7-7.77l6.13-19.96c1.14-0.8,2.28-1.63,3.39-2.47l21.05,0.33
		c3.58,0,6.99-1.55,9.34-4.24c4.94-5.65,9.44-11.82,13.37-18.35c1.89-3.15,2.3-6.94,1.11-10.42l-6.75-19.74
		c0.46-1.33,0.9-2.67,1.3-4l17.06-12c3.02-2.12,4.92-5.44,5.23-9.12c0.32-3.87,0.49-7.67,0.49-11.29
		C279.31,146.34,279.15,142.65,278.82,138.7z M255.41,153.83l-0.01,0.25l-16.18,11.38l-0.29-0.41l0.29,0.41
		c-2.22,1.56-3.81,3.86-4.48,6.49c-0.87,3.38-1.98,6.78-3.29,10.11c-1,2.52-1.06,5.32-0.18,7.89l6.41,18.74l-0.14,0.21
		c-1.42,2.11-2.93,4.18-4.49,6.17l-0.15,0.2l-19.75-0.31c-2.75-0.04-5.43,0.89-7.5,2.6c-2.81,2.31-5.71,4.42-8.61,6.27
		c-2.29,1.46-3.99,3.68-4.79,6.28l-5.82,18.95l-0.23,0.08c-2.36,0.86-4.79,1.65-7.21,2.34l-0.24,0.07l-15.85-11.91
		c-1.96-1.48-4.41-2.29-6.9-2.29c-0.19,0-0.38,0-0.59,0.01c-3.91,0.22-6.93,0.22-10.77,0c-2.55-0.14-5.13,0.61-7.28,2.12
		l-16.07,12.06l-0.24-0.07c-2.43-0.69-4.85-1.48-7.22-2.34l-0.23-0.08l-5.83-18.95c-0.79-2.57-2.47-4.79-4.74-6.25
		c-3.02-1.94-5.93-4.06-8.65-6.3c-2.04-1.68-4.67-2.6-7.42-2.6c-0.01,0-0.02,0-0.03,0l-19.8,0.31l-0.15-0.2
		c-1.57-2-3.08-4.07-4.49-6.17l-0.14-0.21l6.4-18.74c0.88-2.56,0.81-5.36-0.18-7.88c-1.28-3.24-2.38-6.64-3.27-10.11
		c-0.68-2.63-2.27-4.93-4.49-6.49l-16.2-11.39l-0.01-0.25c-0.05-1.3-0.07-2.55-0.07-3.81c0-1.28,0.02-2.53,0.07-3.83l0.01-0.25
		l16.19-11.38c2.22-1.56,3.82-3.87,4.49-6.5c0.89-3.46,1.99-6.87,3.28-10.13c0.99-2.52,1.06-5.31,0.18-7.87l-6.4-18.74l0.14-0.21
		c1.41-2.09,2.92-4.17,4.49-6.16l0.15-0.2l19.71,0.3c2.72,0.08,5.4-0.84,7.53-2.6c2.66-2.19,5.58-4.31,8.66-6.3
		c2.26-1.45,3.93-3.67,4.73-6.24l5.83-18.95l0.23-0.09c2.36-0.86,4.79-1.65,7.22-2.35l0.24-0.07l15.86,11.92
		c2.18,1.64,4.88,2.45,7.6,2.27c1.66-0.11,3.43-0.16,5.27-0.16c1.84,0,3.58,0.05,5.34,0.17c2.72,0.14,5.4-0.66,7.55-2.27
		l15.85-11.92l0.24,0.07c2.43,0.69,4.85,1.48,7.21,2.34l0.23,0.09l5.82,18.95c0.79,2.59,2.49,4.81,4.77,6.27
		c2.98,1.9,5.88,4.01,8.62,6.27c2.12,1.75,4.69,2.63,7.43,2.6l19.82-0.3l0.15,0.2c1.56,1.98,3.07,4.06,4.49,6.17l0.14,0.21
		l-6.41,18.73c-0.88,2.56-0.81,5.36,0.18,7.88c1.32,3.34,2.42,6.75,3.29,10.13c0.68,2.63,2.27,4.94,4.49,6.5l16.18,11.37l0.01,0.25
		c0.05,1.3,0.07,2.55,0.07,3.84C255.49,151.23,255.46,152.52,255.41,153.83z"/>
</g>
</svg>
