<?xml version="1.0" encoding="utf-8"?>
<!-- Generator: Adobe Illustrator 27.1.0, SVG Export Plug-In . SVG Version: 6.00 Build 0)  -->
<svg version="1.1" id="레이어_1" xmlns="http://www.w3.org/2000/svg" xmlns:xlink="http://www.w3.org/1999/xlink" x="0px"
	 y="0px" viewBox="0 0 300 300" style="enable-background:new 0 0 300 300;" xml:space="preserve">
<style type="text/css">
	.st0{fill:#373838;}
</style>
<path class="st0" d="M254.86,68.65c-16.07-18.23-36.84-28.27-58.49-28.27h-94.34c-21.65,0-42.42,10.04-58.49,28.27
	c-15.31,17.37-24.09,39.92-24.09,61.87v0.45c0,21.81,8.78,44.22,24.09,61.48c16.07,18.12,36.84,28.1,58.48,28.1h15.7
	c0.83,7.24,0.09,12.36-4.8,16.32c-2.91,2.35-4.07,6.18-2.96,9.76c1.11,3.57,4.23,6.07,7.96,6.37c0.19,0.02,1.94,0.15,4.76,0.15
	c11.13,0,47.56-2.39,57.58-32.59h16.09c21.64,0,42.41-9.98,58.48-28.1c15.31-17.26,24.09-39.67,24.09-61.48v-0.45
	C278.95,108.57,270.17,86.02,254.86,68.65z M135.22,233.97c1.91-7.99,0.64-15.74-0.17-20.69c-0.18-1.09-0.35-2.12-0.44-2.9
	c-0.55-4.56-4.43-8-9.03-8h-23.55c-36.86,0-64.4-37.69-64.4-71.4v-0.45c0-33.97,27.54-71.96,64.4-71.96h94.34
	c36.86,0,64.4,37.99,64.4,71.96v0.45c0,33.7-27.54,71.4-64.4,71.4h-23.22c-4.5,0-8.28,3.23-8.98,7.67
	C161.67,225.89,147.89,231.87,135.22,233.97z"/>
<g>
	<circle class="st0" cx="100.97" cy="132.83" r="13.94"/>
	<circle class="st0" cx="149.2" cy="132.83" r="13.94"/>
	<circle class="st0" cx="197.43" cy="132.83" r="13.94"/>
</g>
</svg>
